#!OML:ASF E:\Steps\Project 1\Capture day 1\Session 2\Subject.ASF
:FULLY-SPECIFIED
:DEGREES
34
root 22.6614 16.3807 30.6351 -153.137 0.0201251 177.975
lowerback -31.0621 -1.57531 -6.72574
upperback -1.15609 -0.324538 -0.614994
thorax 14.971 -0.885806 2.76111
lowerneck 1.45956 -0.767123 -5.26794
upperneck 3.7361 -1.94821 13.3287
head 1.0208 -1.11923 4.8591
rclavicle 6.75868e-015 1.82882e-014
rhumerus -37.6726 -21.5142 -77.1231
rradius 30.1952
rwrist -1.48624
rhand -8.63468 -54.4584
rfingers 7.12502
rthumb 17.2981 -83.7086
lclavicle 6.75868e-015 1.82882e-014
lhumerus -27.5891 3.94934 82.0861
lradius 23.6529
lwrist -3.23568
lhand -22.5812 -10.0033
lfingers 7.12502
lthumb 3.84754 19.9417
rfemur -20.9075 4.80415 19.3403
rtibia 4.42771
rfoot -17.7316 -8.20873
rtoes -36.1722
lfemur -23.8903 -9.99778 -19.1666
ltibia 8.0301
lfoot -7.13096 -0.475741
ltoes -27.3427
35
root 22.6644 16.3807 30.6335 -153.086 0.0376644 177.984
lowerback -31.0576 -1.54052 -6.73919
upperback -1.19273 -0.279753 -0.638169
thorax 14.9209 -0.866894 2.76081
lowerneck 1.01554 -0.574576 -5.08025
upperneck 3.75643 -1.71046 13.6061
head 1.07827 -0.989213 4.91159
rclavicle -7.05686e-015 -3.18055e-015
rhumerus -37.7405 -21.7065 -77.0713
rradius 30.2443
rwrist -1.36775
rhand -8.53598 -53.9827
rfingers 7.12502
rthumb 17.3931 -83.2246
lclavicle -7.05686e-015 -3.18055e-015
lhumerus -27.6705 4.07141 82.0062
lradius 23.1825
lwrist -3.65146
lhand -23.297 -9.95892
lfingers 7.12502
lthumb 3.15627 19.9975
rfemur -21.0687 4.72718 19.3687
rtibia 4.61837
rfoot -17.8133 -8.12353
rtoes -36.1269
lfemur -23.97 -10.0482 -19.126
ltibia 8.1043
lfoot -7.18585 -0.368527
ltoes -27.4722
36
root 22.667 16.3798 30.6311 -153.021 0.0129729 178.032
lowerback -31.1003 -1.61299 -6.70783
upperback -1.23174 -0.407026 -0.517727
thorax 14.908 -0.925287 2.82271
lowerneck 2.27406 -1.10284 -5.35115
upperneck 3.43071 -2.36689 13.0444
head 0.83501 -1.35931 4.79064
rclavicle -1.49089e-015 -7.95139e-016
rhumerus -37.7497 -21.3954 -77.0422
rradius 30.3739
rwrist -1.3854
rhand -8.54166 -54.436
rfingers 7.12502
rthumb 17.3876 -83.6783
lclavicle -1.49089e-015 -7.95139e-016
lhumerus -27.7897 4.56634 81.9575
lradius 22.7282
lwrist -3.92603
lhand -23.3642 -10.039
lfingers 7.12502
lthumb 3.09137 19.9183
rfemur -20.9264 4.24287 19.5081
rtibia 4.17731
rfoot -17.6119 -7.62312
rtoes -36.115
lfemur -24.052 -9.98709 -19.0569
ltibia 8.15696
lfoot -7.14876 -0.400441
ltoes -27.4288
37
root 22.6687 16.3799 30.6301 -152.978 -0.00208302 178.086
lowerback -31.1068 -1.60551 -6.62842
upperback -1.23895 -0.428482 -0.497597
thorax 14.9056 -0.929903 2.79317
lowerneck 3.13741 -1.64084 -5.56237
upperneck 3.47761 -3.09123 12.5216
head 0.771246 -1.74162 4.67218
rclavicle 5.46658e-016 -2.42517e-014
rhumerus -37.7267 -21.2397 -77.1213
rradius 30.5081
rwrist -1.53381
rhand -8.69686 -55.3234
rfingers 7.12502
rthumb 17.2382 -84.5788
lclavicle 5.46658e-016 -2.42517e-014
lhumerus -27.84 4.80376 81.8456
lradius 22.3382
lwrist -3.91587
lhand -23.1402 -10.0466
lfingers 7.12502
lthumb 3.30768 19.9075
rfemur -21.1162 4.17856 19.6037
rtibia 4.48844
rfoot -17.7835 -7.58706
rtoes -36.1158
lfemur -24.0627 -10.1892 -18.9325
ltibia 8.1088
lfoot -7.1123 -0.144986
ltoes -26.6614
38
root 22.6713 16.3805 30.6293 -152.945 0.015276 178.104
lowerback -31.1162 -1.59332 -6.59281
upperback -1.21064 -0.416727 -0.51168
thorax 14.9423 -0.921769 2.76357
lowerneck 2.61774 -1.34412 -5.45695
upperneck 3.65232 -2.71436 12.7882
head 0.874112 -1.53781 4.73092
rclavicle 1.78906e-015 2.78299e-015
rhumerus -37.6575 -21.1551 -77.2452
rradius 30.6307
rwrist -1.71708
rhand -8.6923 -55.557
rfingers 7.12502
rthumb 17.2426 -84.8121
lclavicle 1.78906e-015 2.78299e-015
lhumerus -27.8274 5.05845 81.7003
lradius 21.9537
lwrist -4.04005
lhand -23.1144 -10.8567
lfingers 7.12502
lthumb 3.33259 19.097
rfemur -21.1765 4.15343 19.6394
rtibia 4.53341
rfoot -17.8048 -7.54955
rtoes -36.1352
lfemur -24.0908 -10.349 -18.8579
ltibia 8.09654
lfoot -7.10947 0.0944468
ltoes -26.8281
39
root 22.6747 16.3803 30.626 -152.911 0.0168457 178.081
lowerback -31.1759 -1.60172 -6.61534
upperback -1.15875 -0.404892 -0.523006
thorax 15.0286 -0.918748 2.76756
lowerneck 2.3759 -1.34032 -5.49671
upperneck 3.91533 -2.72802 12.7462
head 0.992209 -1.53055 4.72093
rclavicle -2.6339e-015 -6.40087e-014
rhumerus -37.613 -21.0932 -77.3554
rradius 30.8199
rwrist -1.85225
rhand -8.42894 -55.2142
rfingers 7.12502
rthumb 17.4961 -84.4468
lclavicle -2.6339e-015 -6.40087e-014
lhumerus -27.7514 5.31704 81.5919
lradius 21.5153
lwrist -4.23945
lhand -22.8794 -10.4098
lfingers 7.12502
lthumb 3.5596 19.5402
rfemur -21.1766 4.52635 19.543
rtibia 4.48078
rfoot -17.7538 -7.9193
rtoes -36.0751
lfemur -24.1774 -10.2438 -18.8769
ltibia 8.18917
lfoot -7.14657 -0.00767851
ltoes -27.0543
40
root 22.6784 16.3794 30.6214 -152.9 0.0300075 178.036
lowerback -31.2392 -1.62955 -6.66867
upperback -1.10518 -0.408205 -0.527791
thorax 15.1198 -0.924962 2.78894
lowerneck 1.99671 -1.06344 -5.42037
upperneck 3.93963 -2.37195 13.0612
head 1.0303 -1.34435 4.8036
rclavicle -4.96962e-017 1.51076e-014
rhumerus -37.5478 -21.1134 -77.4042
rradius 30.9646
rwrist -1.88974
rhand -8.10653 -55.0368
rfingers 7.12502
rthumb 17.8063 -84.2416
lclavicle -4.96962e-017 1.51076e-014
lhumerus -27.7071 5.59283 81.4883
lradius 21.0436
lwrist -4.60473
lhand -22.1957 -10.4575
lfingers 7.12502
lthumb 4.21978 19.4805
rfemur -21.1554 4.5611 19.4863
rtibia 4.44109
rfoot -17.7542 -7.90258
rtoes -35.7595
lfemur -24.224 -10.0808 -18.9552
ltibia 8.31604
lfoot -7.20868 -0.140898
ltoes -27.261
41
root 22.6815 16.3797 30.6183 -152.908 0.0607772 177.989
lowerback -31.2195 -1.66632 -6.73636
upperback -1.10352 -0.435135 -0.514676
thorax 15.1151 -0.941535 2.82896
lowerneck 2.60111 -1.37652 -5.457
upperneck 3.70339 -2.76583 12.7946
head 0.896629 -1.56244 4.73217
rclavicle 1.78906e-015 -2.14687e-014
rhumerus -37.567 -21.0196 -77.4164
rradius 31.0947
rwrist -1.9659
rhand -7.98022 -55.3039
rfingers 7.12502
rthumb 17.9279 -84.4976
lclavicle 1.78906e-015 -2.14687e-014
lhumerus -27.7716 5.96935 81.3459
lradius 20.5394
lwrist -5.15663
lhand -21.9719 -10.6246
lfingers 7.12502
lthumb 4.43586 19.3089
rfemur -21.0945 4.80402 19.38
rtibia 4.3521
rfoot -17.7368 -8.06326
rtoes -35.3532
lfemur -24.23 -9.92173 -19.0505
ltibia 8.41775
lfoot -7.30894 -0.263949
ltoes -28.5173
42
root 22.6842 16.3794 30.6183 -152.832 0.0686351 177.947
lowerback -31.2096 -1.69061 -6.80833
upperback -1.15504 -0.454797 -0.506476
thorax 15.0509 -0.95613 2.86794
lowerneck 2.83831 -1.50846 -5.55106
upperneck 3.62328 -2.9475 12.822
head 0.852546 -1.66397 4.7586
rclavicle -2.88238e-015 1.66979e-014
rhumerus -37.677 -20.9153 -77.4328
rradius 31.2609
rwrist -2.0609
rhand -8.07191 -55.9608
rfingers 7.12502
rthumb 17.8396 -85.1625
lclavicle -2.88238e-015 1.66979e-014
lhumerus -27.9099 6.34937 81.1586
lradius 20.123
lwrist -5.54048
lhand -22.1667 -10.4497
lfingers 7.12502
lthumb 4.24779 19.4877
rfemur -21.2255 4.60806 19.3933
rtibia 4.44901
rfoot -17.7897 -7.95349
rtoes -35.6608
lfemur -24.329 -9.88019 -19.0767
ltibia 8.43817
lfoot -7.48506 -0.3643
ltoes -29.2074
43
root 22.6876 16.3774 30.6183 -152.735 0.108508 177.906
lowerback -31.2605 -1.71381 -6.88835
upperback -1.18705 -0.46266 -0.507914
thorax 15.0353 -0.96747 2.9044
lowerneck 3.10102 -1.65744 -5.55576
upperneck 3.56427 -3.14001 12.6661
head 0.808441 -1.76769 4.71424
rclavicle -6.5102e-015 -1.31198e-014
rhumerus -37.7229 -20.9092 -77.4581
rradius 31.3621
rwrist -2.05124
rhand -8.09173 -56.5305
rfingers 7.12502
rthumb 17.8206 -85.734
lclavicle -6.5102e-015 -1.31198e-014
lhumerus -28.1218 6.70116 80.9557
lradius 19.9045
lwrist -5.78381
lhand -22.4324 -10.1801
lfingers 7.12502
lthumb 3.99127 19.7622
rfemur -21.3 4.80455 19.3354
rtibia 4.39004
rfoot -17.7396 -8.19511
rtoes -36.1241
lfemur -24.4577 -9.8502 -19.1108
ltibia 8.50034
lfoot -7.66476 -0.394943
ltoes -29.9245
44
root 22.6915 16.3783 30.6143 -152.838 0.162702 177.852
lowerback -31.1946 -1.75278 -6.98635
upperback -1.14034 -0.474386 -0.490255
thorax 15.0621 -0.977476 2.9736
lowerneck 3.18229 -1.61365 -5.52894
upperneck 3.50683 -3.08047 12.6935
head 0.77251 -1.74309 4.7199
rclavicle -3.67752e-015 3.97569e-016
rhumerus -37.6755 -20.8193 -77.4894
rradius 31.4251
rwrist -2.09273
rhand -8.13567 -56.3548
rfingers 7.12502
rthumb 17.7783 -85.5621
lclavicle -3.67752e-015 3.97569e-016
lhumerus -28.3367 7.16317 80.7736
lradius 19.6873
lwrist -6.19926
lhand -22.5863 -10.381
lfingers 7.12502
lthumb 3.84264 19.5641
rfemur -21.3796 4.56704 19.3783
rtibia 4.83601
rfoot -17.988 -7.93017
rtoes -36.3497
lfemur -24.3431 -9.75657 -19.2402
ltibia 8.59373
lfoot -7.7074 -0.458
ltoes -30.9459
